PathFileType	4	(X/Y/Z)	Walk1.trc
DataRate	CameraRate	NumFrames	NumMarkers	Units	OrigDataRate	OrigDataStartFrame	OrigNumFrames
200.000000	200.000000	4	59	mm	200.000000	363	554
Frame#	Times		LBHD		C7		T10		RBack		LPSI		RPSI		LTB1		RCAR		LMT5		LLFC		LFHD		RWRR		LTH4		LUA1		RBHD		RElbowM		LElbowM		RUA1		RFA1		CLAV		RTH3		RACR1		LACR1		RWRU		RTH2		LWRU		LCAR		RFHD		RTB1		LFA1		RElbow		RTB2		RCAL		RTH4		RTB4		RToe		RTB3		RMT1		RLFC		RTH1		RMT5		LElbow		LTB4		RLMAL		STRN		LASI		LTB3		LWRR		LTH3		RASI		LLMAL		LTH1		LMT1		RMMAL		LCAL		LTH2		LTB2		LMMAL		LToe
			X1	Y1	Z1	X2	Y2	Z2	X3	Y3	Z3	X4	Y4	Z4	X5	Y5	Z5	X6	Y6	Z6	X7	Y7	Z7	X8	Y8	Z8	X9	Y9	Z9	X10	Y10	Z10	X11	Y11	Z11	X12	Y12	Z12	X13	Y13	Z13	X14	Y14	Z14	X15	Y15	Z15	X16	Y16	Z16	X17	Y17	Z17	X18	Y18	Z18	X19	Y19	Z19	X20	Y20	Z20	X21	Y21	Z21	X22	Y22	Z22	X23	Y23	Z23	X24	Y24	Z24	X25	Y25	Z25	X26	Y26	Z26	X27	Y27	Z27	X28	Y28	Z28	X29	Y29	Z29	X30	Y30	Z30	X31	Y31	Z31	X32	Y32	Z32	X33	Y33	Z33	X34	Y34	Z34	X35	Y35	Z35	X36	Y36	Z36	X37	Y37	Z37	X38	Y38	Z38	X39	Y39	Z39	X40	Y40	Z40	X41	Y41	Z41	X42	Y42	Z42	X43	Y43	Z43	X44	Y44	Z44	X45	Y45	Z45	X46	Y46	Z46	X47	Y47	Z47	X48	Y48	Z48	X49	Y49	Z49	X50	Y50	Z50	X51	Y51	Z51	X52	Y52	Z52	X53	Y53	Z53	X54	Y54	Z54	X55	Y55	Z55	X56	Y56	Z56	X57	Y57	Z57	X58	Y58	Z58	X59	Y59	Z59

363	1.815	70.125	1463.3	-43.883	42.041	1329.2	25.472	20.426	1057.8	5.0487	17.54	1219.9	145.47	-8.8176	882.23	-27.298	-4.7599	874.43	70.378	3.4334	315.49	-51.513	94.586	688.81	315.3	-158.66	48.212	-77.167	30.786	432.34	-135.69	243.23	1459.4	-30.263	130.96	730.39	280.59	108.09	621.88	-166.42	118.96	1110	-235.65	75.088	1474.4	78.967	24.993	927.8	193.86	52.218	956.73	-199.66	98.861	1101.2	250	42.555	835.25	287.18	166.44	1249.4	25.951	238.37	535.94	165.19	114.18	1258.1	176.35	118.48	1276	-141.89	55.876	723.55	281.13	270.48	656.76	157.64	168.25	762.8	-295.9	221.08	731.87	-308.22	253.46	1470.3	44.722	343.3	337.68	69.034	125.65	874.6	-288.97	54.49	962.08	278.47	338.99	243.82	143.22	314.98	35.119	104.15	206.67	623.94	187.62	357.09	246.54	74.315	524.64	40.368	63.898	381.25	155.6	73.455	466.12	58.725	58.562	283.32	450.84	152.26	179.16	705.39	212.3	452.51	36.661	108.86	83.533	994.26	-262.5	-63.24	251.31	-43.366	370.07	65.493	123.95	232.22	1148.2	17.566	179.97	837.6	-168.39	-114.43	176.17	-33.65	230.42	768.68	-255.95	86.989	531.51	-145.56	223.93	847.41	162.78	-212.49	123.19	-72.817	122.13	712.92	-189.44	-127.26	54.331	-23.194	366.49	72.781	44.849	-266.4	122.47	-27.957	171.29	621.44	-131.27	-84.739	261.93	-110.02	-192.46	120	5.4157	-89.944	23.749	-32.474
364	1.82	75.958	1464	-42.886	48.173	1329.8	26.562	26.347	1058.3	6.0203	23.637	1220.3	146.79	-2.1191	882.09	-27.07	1.7588	874.93	70.822	11.546	315.84	-52.75	102	688.79	315.85	-156.34	49.549	-77.007	40.17	432.24	-136.48	249.48	1459.8	-29.666	137.95	729.12	280.6	116.24	622.06	-166.09	124.76	1110.3	-234.37	81.128	1475	80.149	32.244	927.56	194.29	58.107	957.3	-198.15	105.49	1101.3	250.98	50.438	835.17	287.88	172.41	1250.3	27.032	242.42	536.33	166.06	120.25	1258.5	177.42	123.97	1276.5	-141.08	63.475	723.7	281.85	277.25	656.32	157.46	173.6	763.2	-294.73	226.19	732.03	-307.25	259.8	1470.9	45.769	347.47	337.59	67.976	131.27	874.77	-287.56	62.064	961.96	278.6	343.3	244.35	143.21	315.76	35.473	104.51	213.35	625.26	188.33	360.36	246.5	73.967	525.32	37.969	63.479	383.69	155.24	73.45	466.83	56.94	58.265	288.75	452.54	152.8	188.07	708.16	212.87	453.19	35.441	109.12	89.44	994.43	-260.97	-56.064	252.39	-44.416	370.82	65.733	124.24	238.54	1149.2	18.439	186.28	837.68	-166.92	-108.71	178.08	-34.42	235.64	768.61	-255	96.168	531.71	-145.97	230.34	848.32	162.82	-207.96	127.3	-72.818	129.6	713.53	-189.13	-125.05	54.413	-23.321	367.43	72.466	44.932	-260.85	128.32	-27.555	178.8	621.89	-131.66	-78.123	263.7	-110.73	-187.25	123.64	5.288	-89.933	23.631	-32.193
365	1.825	81.937	1465.1	-42.079	54.024	1330.7	27.848	32.252	1059.4	6.7533	30.167	1221	147.78	3.9937	881.86	-27.024	8.2809	875.95	71.224	20.171	316.32	-54.402	109.58	688.81	316.59	-154.03	50.867	-76.657	49.936	432.28	-137.25	255.3	1460.4	-28.939	145.17	729.17	280.53	124.98	622.27	-165.52	130.32	1111.2	-233.66	87.115	1475.8	80.988	39.917	927.77	194.57	64.411	957.63	-196.51	112.72	1101.3	251.55	58.236	835.13	288.27	178.35	1251.3	27.704	246.54	536.9	167.03	126.83	1259	178.42	129.9	1277	-139.92	71.079	723.76	282.3	284.08	655.93	157.18	178.47	763.48	-293.62	231.24	731.99	-306.36	265.84	1471.3	46.745	351.55	337.54	67.068	136.7	875.06	-286.11	70.009	961.81	278.99	347.25	244.63	143.3	316.41	35.874	104.74	219.54	626.71	188.81	363.38	246.34	73.618	525.78	35.28	63.105	385.84	154.9	73.37	467.63	55.431	57.955	295.28	454.35	152.7	196.67	710.12	213.2	453.71	34.625	109.04	95.152	994.87	-259.51	-48.511	253.76	-45.204	372.1	65.563	124.19	244.5	1150.4	19.425	192.75	837.64	-164.97	-102.48	180.04	-35.157	240.86	768.65	-253.99	105.18	531.97	-146.45	236.76	849.76	162.81	-202.74	131.45	-72.771	137.27	714.48	-189	-122.61	54.496	-23.085	368.45	71.996	45.091	-254.81	134.28	-27.05	188.03	623.01	-131.67	-71.239	265.64	-111.45	-181.35	127.2	5.0835	-89.982	23.576	-31.98
366	1.83	87.913	1466.1	-41.165	59.935	1331.8	28.898	37.835	1060.2	7.8151	36.582	1221.7	149.2	10.199	881.66	-27.158	14.311	876.63	71.241	28.756	316.26	-55.893	117.22	689.03	317.17	-151.32	52.036	-76.546	60.129	432.19	-138.1	261.56	1461	-28.254	153.09	729.68	280.69	133.69	622.71	-165.48	135.74	1111.9	-232.42	93.645	1476.8	81.996	47.778	928.15	194.96	70.63	958.53	-194.56	120.24	1101.8	252	65.939	835.52	288.82	184.31	1252.3	28.464	250.97	537.82	167.91	133.1	1259.8	179.43	135.78	1277.8	-138.8	78.504	724	282.81	290.62	655.98	157.36	183.53	763.72	-292.19	236.15	732.27	-305.21	272.12	1471.9	47.584	355.57	337.33	66.417	141.91	875.59	-284.78	77.733	961.89	279.62	350.81	244.75	143.23	316.87	36.183	104.89	225.76	628.09	189.47	366.15	246.16	73.03	526.16	33.692	63.228	387.82	154.53	73.215	468.24	54.303	57.799	302.63	455.65	152.81	204.82	711.9	213.3	454.34	33.974	109.7	101.17	995.59	-258.11	-40.306	255.12	-46.369	373.6	65.174	124.26	250.74	1151.7	20.152	199.57	837.95	-162.61	-95.495	182.19	-36.228	245.98	768.76	-252.99	114.73	532.49	-147.08	242.68	850.84	162.42	-197.16	135.71	-72.694	145.17	715.15	-188.77	-120.26	54.643	-22.849	369.22	71.681	45.138	-248.17	140.32	-26.495	197.06	624.27	-131.6	-63.501	267.5	-112.07	-175.22	130.7	4.8513	-90.062	23.541	-31.769
